<svg width="16" height="17" viewBox="0 0 16 17" fill="none" xmlns="http://www.w3.org/2000/svg">
<path d="M7.66667 11V12.6667M2.66667 16H12.6667C13.1087 16 13.5326 15.8244 13.8452 15.5118C14.1577 15.1993 14.3333 14.7754 14.3333 14.3333V9.33333C14.3333 8.89131 14.1577 8.46738 13.8452 8.15482C13.5326 7.84226 13.1087 7.66667 12.6667 7.66667H2.66667C2.22464 7.66667 1.80072 7.84226 1.48816 8.15482C1.17559 8.46738 1 8.89131 1 9.33333V14.3333C1 14.7754 1.17559 15.1993 1.48816 15.5118C1.80072 15.8244 2.22464 16 2.66667 16ZM11 7.66667V4.33333C11 3.44928 10.6488 2.60143 10.0237 1.97631C9.39857 1.35119 8.55072 1 7.66667 1C6.78261 1 5.93477 1.35119 5.30964 1.97631C4.68452 2.60143 4.33333 3.44928 4.33333 4.33333V7.66667H11Z" stroke="#4379EE" stroke-width="2" stroke-linecap="round" stroke-linejoin="round"/>
</svg>
